<svg xmlns="http://www.w3.org/2000/svg" style="display:none">
  <!-- Lucide icons (lucide.dev), ISC. stroke 1.75, round, currentColor. See LICENSE-lucide.txt -->
  <symbol id="i-pencil-line" viewBox="0 0 24 24" fill="none" stroke="currentColor" stroke-width="1.75" stroke-linecap="round" stroke-linejoin="round">
    <path d="M12 20h9"/><path d="M16.5 3.5a2.121 2.121 0 0 1 3 3L7 19l-4 1 1-4Z"/>
  </symbol>
  <symbol id="i-library-big" viewBox="0 0 24 24" fill="none" stroke="currentColor" stroke-width="1.75" stroke-linecap="round" stroke-linejoin="round">
    <rect width="8" height="18" x="3" y="3" rx="1"/><path d="M7 3v18"/><path d="M20.4 18.9c.2.5-.1 1.1-.6 1.3l-1.9.7c-.5.2-1.1-.1-1.3-.6L11.1 5.1c-.2-.5.1-1.1.6-1.3l1.9-.7c.5-.2 1.1.1 1.3.6Z"/>
  </symbol>
  <symbol id="i-waypoints" viewBox="0 0 24 24" fill="none" stroke="currentColor" stroke-width="1.75" stroke-linecap="round" stroke-linejoin="round">
    <circle cx="12" cy="4.5" r="2.5"/><path d="m10.2 6.3-3.9 3.9"/><circle cx="4.5" cy="12" r="2.5"/><path d="M7 12h10"/><circle cx="19.5" cy="12" r="2.5"/><path d="m13.8 17.7 3.9-3.9"/><circle cx="12" cy="19.5" r="2.5"/>
  </symbol>
  <symbol id="i-history" viewBox="0 0 24 24" fill="none" stroke="currentColor" stroke-width="1.75" stroke-linecap="round" stroke-linejoin="round">
    <path d="M3 12a9 9 0 1 0 9-9 9.75 9.75 0 0 0-6.74 2.74L3 8"/><path d="M3 3v5h5"/><path d="M12 7v5l4 2"/>
  </symbol>
  <symbol id="i-sun-moon" viewBox="0 0 24 24" fill="none" stroke="currentColor" stroke-width="1.75" stroke-linecap="round" stroke-linejoin="round">
    <path d="M12 8a2.83 2.83 0 0 0 4 4 4 4 0 1 1-4-4"/><path d="M12 2v2"/><path d="M12 20v2"/><path d="m4.9 4.9 1.4 1.4"/><path d="m17.7 17.7 1.4 1.4"/><path d="M2 12h2"/><path d="M20 12h2"/><path d="m6.3 17.7-1.4 1.4"/><path d="m19.1 4.9-1.4 1.4"/>
  </symbol>
  <symbol id="i-settings-2" viewBox="0 0 24 24" fill="none" stroke="currentColor" stroke-width="1.75" stroke-linecap="round" stroke-linejoin="round">
    <path d="M20 7h-9"/><path d="M14 17H5"/><circle cx="17" cy="17" r="3"/><circle cx="7" cy="7" r="3"/>
  </symbol>
  <symbol id="i-panel-right" viewBox="0 0 24 24" fill="none" stroke="currentColor" stroke-width="1.75" stroke-linecap="round" stroke-linejoin="round">
    <rect width="18" height="18" x="3" y="3" rx="2"/><path d="M15 3v18"/>
  </symbol>
  <symbol id="i-x" viewBox="0 0 24 24" fill="none" stroke="currentColor" stroke-width="1.75" stroke-linecap="round" stroke-linejoin="round">
    <path d="M18 6 6 18"/><path d="m6 6 12 12"/>
  </symbol>
  <symbol id="i-plus" viewBox="0 0 24 24" fill="none" stroke="currentColor" stroke-width="1.75" stroke-linecap="round" stroke-linejoin="round">
    <path d="M5 12h14"/><path d="M12 5v14"/>
  </symbol>
  <symbol id="i-search" viewBox="0 0 24 24" fill="none" stroke="currentColor" stroke-width="1.75" stroke-linecap="round" stroke-linejoin="round">
    <circle cx="11" cy="11" r="8"/><path d="m21 21-4.3-4.3"/>
  </symbol>
  <symbol id="i-files" viewBox="0 0 24 24" fill="none" stroke="currentColor" stroke-width="1.75" stroke-linecap="round" stroke-linejoin="round">
    <path d="M20 7h-3a2 2 0 0 1-2-2V2"/><path d="M9 18a2 2 0 0 1-2-2V4a2 2 0 0 1 2-2h7l4 4v10a2 2 0 0 1-2 2Z"/><path d="M3 7.6v12.8A1.6 1.6 0 0 0 4.6 22h9.8"/>
  </symbol>
  <symbol id="i-calendar-days" viewBox="0 0 24 24" fill="none" stroke="currentColor" stroke-width="1.75" stroke-linecap="round" stroke-linejoin="round">
    <path d="M8 2v4"/><path d="M16 2v4"/><rect width="18" height="18" x="3" y="4" rx="2"/><path d="M3 10h18"/><path d="M8 14h.01"/><path d="M12 14h.01"/><path d="M16 14h.01"/><path d="M8 18h.01"/><path d="M12 18h.01"/><path d="M16 18h.01"/>
  </symbol>
  <symbol id="i-star" viewBox="0 0 24 24" fill="none" stroke="currentColor" stroke-width="1.75" stroke-linecap="round" stroke-linejoin="round">
    <path d="M11.5 3.6a.6.6 0 0 1 1 0l2.3 4.7 5.2.7a.6.6 0 0 1 .3 1l-3.7 3.6.9 5.1a.6.6 0 0 1-.9.7L12 17.5l-4.6 2.4a.6.6 0 0 1-.9-.7l.9-5.1L3.7 10a.6.6 0 0 1 .3-1l5.2-.7Z"/>
  </symbol>
  <symbol id="i-unlink" viewBox="0 0 24 24" fill="none" stroke="currentColor" stroke-width="1.75" stroke-linecap="round" stroke-linejoin="round">
    <path d="m18.84 12.25 1.72-1.71a4.5 4.5 0 0 0-6.36-6.37l-1.71 1.72"/><path d="m5.17 11.75-1.71 1.71a4.5 4.5 0 0 0 6.36 6.37l1.71-1.72"/><path d="M8 2v3"/><path d="M2 8h3"/><path d="M16 22v-3"/><path d="M22 16h-3"/>
  </symbol>
  <symbol id="i-folder-open" viewBox="0 0 24 24" fill="none" stroke="currentColor" stroke-width="1.75" stroke-linecap="round" stroke-linejoin="round">
    <path d="m6 14 1.5-2.9A2 2 0 0 1 9.24 10H20a2 2 0 0 1 1.94 2.5l-1.54 6a2 2 0 0 1-1.95 1.5H4a2 2 0 0 1-2-2V5a2 2 0 0 1 2-2h3.9a2 2 0 0 1 1.69.9l.81 1.2a2 2 0 0 0 1.67.9H18a2 2 0 0 1 2 2v2"/>
  </symbol>
  <symbol id="i-import" viewBox="0 0 24 24" fill="none" stroke="currentColor" stroke-width="1.75" stroke-linecap="round" stroke-linejoin="round">
    <path d="M12 3v12"/><path d="m8 11 4 4 4-4"/><path d="M8 5H4a2 2 0 0 0-2 2v12a2 2 0 0 0 2 2h16a2 2 0 0 0 2-2V7a2 2 0 0 0-2-2h-4"/>
  </symbol>
  <symbol id="i-upload" viewBox="0 0 24 24" fill="none" stroke="currentColor" stroke-width="1.75" stroke-linecap="round" stroke-linejoin="round">
    <path d="M21 15v4a2 2 0 0 1-2 2H5a2 2 0 0 1-2-2v-4"/><path d="M17 8l-5-5-5 5"/><path d="M12 3v12"/>
  </symbol>
  <symbol id="i-pin" viewBox="0 0 24 24" fill="none" stroke="currentColor" stroke-width="1.75" stroke-linecap="round" stroke-linejoin="round">
    <path d="M12 17v5"/><path d="M9 10.76a2 2 0 0 1-1.11 1.79l-1.78.9A2 2 0 0 0 5 15.24V16a1 1 0 0 0 1 1h12a1 1 0 0 0 1-1v-.76a2 2 0 0 0-1.11-1.79l-1.78-.9A2 2 0 0 1 15 10.76V7a1 1 0 0 1 1-1 2 2 0 0 0 0-4H8a2 2 0 0 0 0 4 1 1 0 0 1 1 1z"/>
  </symbol>
  <symbol id="i-trash-2" viewBox="0 0 24 24" fill="none" stroke="currentColor" stroke-width="1.75" stroke-linecap="round" stroke-linejoin="round">
    <path d="M3 6h18"/><path d="M19 6v14a2 2 0 0 1-2 2H7a2 2 0 0 1-2-2V6m3 0V4a2 2 0 0 1 2-2h4a2 2 0 0 1 2 2v2"/><line x1="10" x2="10" y1="11" y2="17"/><line x1="14" x2="14" y1="11" y2="17"/>
  </symbol>
</svg>
